<svg width="50" height="37" viewBox="0 0 50 37" fill="none" xmlns="http://www.w3.org/2000/svg">
<path d="M2.62834 0.0125087C1.81087 0.143305 1.07883 0.593484 0.593278 1.26401C0.107723 1.93454 -0.0915787 2.77049 0.0392172 3.58797C0.170013 4.40544 0.620192 5.13748 1.29072 5.62303C1.96125 6.10859 2.7972 6.30789 3.61467 6.17709H12.8615L13.4164 7.71824L15.9438 15.424L18.4713 23.1297C18.7179 23.9311 19.7659 24.6708 20.5673 24.6708H42.1433C43.0064 24.6708 43.9927 23.9311 44.2393 23.1297L49.2326 7.71824C49.4792 6.91684 49.1093 6.17709 48.2462 6.17709H20.8755L18.533 1.73859C18.2835 1.22915 17.8982 0.798435 17.4196 0.493886C16.9411 0.189337 16.3877 0.0227635 15.8205 0.0125087L3.49138 0.0125087C3.30682 -0.00416955 3.12113 -0.00416955 2.93657 0.0125087C2.81339 0.00510449 2.68988 0.00510449 2.5667 0.0125087L2.62834 0.0125087ZM22.1084 30.8354C20.3823 30.8354 19.0261 32.1916 19.0261 33.9177C19.0261 35.6438 20.3823 37 22.1084 37C23.8345 37 25.1907 35.6438 25.1907 33.9177C25.1907 32.1916 23.8345 30.8354 22.1084 30.8354ZM40.6022 30.8354C38.8761 30.8354 37.5199 32.1916 37.5199 33.9177C37.5199 35.6438 38.8761 37 40.6022 37C42.3283 37 43.6845 35.6438 43.6845 33.9177C43.6845 32.1916 42.3283 30.8354 40.6022 30.8354Z" fill="#28CAB8"/>
</svg>
