<svg width="37" height="37" viewBox="0 0 37 37" fill="none" xmlns="http://www.w3.org/2000/svg">
<g filter="url(#filter0_d_1_402)">
<path d="M16.5737 0.535925H16.7808L16.815 0.501721C23.378 0.611748 28.6833 5.98493 28.6833 12.5737C28.6833 14.6346 28.0991 16.6 27.1646 18.2959L26.9409 18.7019L27.329 18.9557C27.5073 19.0723 27.6731 19.207 27.8237 19.3577L27.8238 19.3578L31.4163 22.9502L31.4267 22.9606L31.4377 22.9704C31.76 23.2569 32.0204 23.6062 32.2028 23.9969C32.3853 24.3876 32.4859 24.8115 32.4986 25.2426C32.5113 25.6736 32.4358 26.1027 32.2766 26.5035C32.1175 26.9042 31.8781 27.2683 31.5732 27.5732C31.2683 27.8781 30.9042 28.1175 30.5035 28.2766C30.1027 28.4358 29.6736 28.5113 29.2426 28.4986C28.8115 28.4859 28.3876 28.3853 27.9969 28.2028C27.6062 28.0204 27.2569 27.76 26.9704 27.4377L26.9606 27.4267L26.9502 27.4163L23.3578 23.8238L23.3415 23.8075L23.3238 23.7928C23.1777 23.6714 23.0431 23.5369 22.9217 23.3908L22.6577 23.0731L22.2959 23.2724C20.616 24.1981 18.6166 24.6833 16.5737 24.6833C9.91633 24.6833 4.5 19.2669 4.5 12.6096C4.5 5.95226 9.91633 0.535925 16.5737 0.535925ZM16.5737 3.1284H16.3666L16.3284 3.16655C11.157 3.27634 7.05655 7.4458 7.05655 12.6455C7.05655 17.9152 11.2681 22.1267 16.5377 22.1267C18.9902 22.1267 21.2676 21.2587 22.9454 19.7334L22.9712 19.7099L22.9936 19.683C23.115 19.5369 23.2495 19.4024 23.3956 19.281L23.4133 19.2663L23.4296 19.25L23.4298 19.2498L23.43 19.2496L23.4302 19.2493L23.4304 19.2491L23.4307 19.2489L23.4309 19.2487L23.4311 19.2485L23.4313 19.2483L23.4315 19.2481L23.4317 19.2479L23.4319 19.2477L23.4321 19.2475L23.4323 19.2472L23.4325 19.247L23.4328 19.2468L23.433 19.2466L23.4332 19.2464L23.4334 19.2462L23.4336 19.246L23.4338 19.2458L23.434 19.2456L23.4342 19.2453L23.4344 19.2451L23.4347 19.2449L23.4349 19.2447L23.4351 19.2445L23.4353 19.2443L23.4355 19.2441L23.4357 19.2439L23.4359 19.2437L23.4361 19.2435L23.4363 19.2432L23.4365 19.243L23.4368 19.2428L23.437 19.2426L23.4372 19.2424L23.4374 19.2422L23.4376 19.242L23.4378 19.2418L23.438 19.2416L23.4382 19.2413L23.4384 19.2411L23.4387 19.2409L23.4389 19.2407L23.4391 19.2405L23.4393 19.2403L23.4395 19.2401L23.4397 19.2399L23.4399 19.2397L23.4401 19.2395L23.4403 19.2392L23.4405 19.239L23.4408 19.2388L23.441 19.2386L23.4412 19.2384L23.4414 19.2382L23.4416 19.238L23.4418 19.2378L23.442 19.2376L23.4422 19.2373L23.4424 19.2371L23.4427 19.2369L23.4429 19.2367L23.4431 19.2365L23.4433 19.2363L23.4435 19.2361L23.4437 19.2359L23.4439 19.2357L23.4441 19.2355L23.4443 19.2352L23.4445 19.235L23.4448 19.2348L23.445 19.2346L23.4452 19.2344L23.4454 19.2342L23.4456 19.234L23.4458 19.2338L23.446 19.2336L23.4462 19.2333L23.4464 19.2331L23.4467 19.2329L23.4469 19.2327L23.4471 19.2325L23.4473 19.2323L23.4475 19.2321L23.4477 19.2319L23.4479 19.2317L23.4481 19.2315L23.4483 19.2312L23.4485 19.231L23.4488 19.2308L23.449 19.2306L23.4492 19.2304L23.4494 19.2302L23.4496 19.23L23.4498 19.2298L23.45 19.2296L23.4502 19.2293L23.4504 19.2291L23.4507 19.2289L23.4509 19.2287L23.4511 19.2285L23.4513 19.2283L23.4515 19.2281L23.4517 19.2279L23.4519 19.2277L23.4521 19.2275L23.4523 19.2272L23.4525 19.227L23.4528 19.2268L23.453 19.2266L23.4532 19.2264L23.4534 19.2262L23.4536 19.226L23.4538 19.2258L23.454 19.2256L23.4542 19.2254L23.4544 19.2251L23.4547 19.2249L23.4549 19.2247L23.4551 19.2245L23.4553 19.2243L23.4555 19.2241L23.4557 19.2239L23.4559 19.2237L23.4561 19.2235L23.4563 19.2232L23.4565 19.223L23.4568 19.2228L23.457 19.2226L23.4572 19.2224L23.4574 19.2222L23.4576 19.222L23.4578 19.2218L23.458 19.2216L23.4582 19.2214L23.4584 19.2211L23.4587 19.2209L23.4589 19.2207L23.4591 19.2205L23.4593 19.2203L23.4595 19.2201L23.4597 19.2199L23.4599 19.2197L23.4601 19.2195L23.4603 19.2192L23.4605 19.219L23.4608 19.2188L23.461 19.2186L23.4612 19.2184L23.4614 19.2182L23.4616 19.218L23.4618 19.2178L23.462 19.2176L23.4622 19.2174L23.4624 19.2171L23.4627 19.2169L23.4629 19.2167L23.4631 19.2165L23.4633 19.2163L23.4635 19.2161L23.4637 19.2159L23.4639 19.2157L23.4641 19.2155L23.4643 19.2152L23.4645 19.215L23.4648 19.2148L23.465 19.2146L23.4652 19.2144L23.4654 19.2142L23.4656 19.214L23.4658 19.2138L23.466 19.2136L23.4662 19.2134L23.4664 19.2131L23.4666 19.2129L23.4669 19.2127L23.4671 19.2125L23.4673 19.2123L23.4675 19.2121L23.4677 19.2119L23.4679 19.2117L23.4681 19.2115L23.4683 19.2112L23.4685 19.211L23.4688 19.2108L23.469 19.2106L23.4692 19.2104L23.4694 19.2102L23.4696 19.21L23.4698 19.2098L23.47 19.2096L23.4702 19.2094L23.4704 19.2091L23.4706 19.2089L23.4709 19.2087L23.4711 19.2085L23.4713 19.2083L23.4715 19.2081L23.4717 19.2079L23.4719 19.2077L23.4721 19.2075L23.4723 19.2072L23.4725 19.207L23.4728 19.2068L23.473 19.2066L23.4732 19.2064L23.4734 19.2062L23.4736 19.206L23.4738 19.2058L23.474 19.2056L23.4742 19.2054L23.4744 19.2051L23.4746 19.2049L23.4749 19.2047L23.4751 19.2045L23.4753 19.2043L23.4755 19.2041L23.4757 19.2039L23.4759 19.2037L23.4761 19.2035L23.4763 19.2032L23.4765 19.203L23.4768 19.2028L23.477 19.2026L23.4772 19.2024L23.4774 19.2022L23.4776 19.202L23.4778 19.2018L23.478 19.2016L23.4782 19.2014L23.4784 19.2011L23.4786 19.2009L23.4789 19.2007L23.4791 19.2005L23.4793 19.2003L23.4795 19.2001L23.4797 19.1999L23.4799 19.1997L23.4801 19.1995L23.4803 19.1992L23.4805 19.199L23.4808 19.1988L23.481 19.1986L23.4812 19.1984L23.4814 19.1982L23.4816 19.198L23.4818 19.1978L23.482 19.1976L23.4822 19.1974L23.4824 19.1971L23.4826 19.1969L23.4829 19.1967L23.4831 19.1965L23.4833 19.1963L23.4835 19.1961L23.4837 19.1959L23.4839 19.1957L23.4841 19.1955L23.4843 19.1952L23.4845 19.195L23.4848 19.1948L23.485 19.1946L23.4852 19.1944L23.4854 19.1942L23.4856 19.194L23.4858 19.1938L23.486 19.1936L23.4862 19.1934L23.4864 19.1931L23.4866 19.1929L23.4869 19.1927L23.4871 19.1925L23.4873 19.1923L23.4875 19.1921L23.4877 19.1919L23.4879 19.1917L23.4881 19.1915L23.4883 19.1912L23.4885 19.191L23.4888 19.1908L23.489 19.1906L23.4892 19.1904L23.4894 19.1902L23.4896 19.19L23.4898 19.1898L23.49 19.1896L23.4902 19.1894L23.4904 19.1891L23.4906 19.1889L23.4909 19.1887L23.4911 19.1885L23.4913 19.1883L23.4915 19.1881L23.4917 19.1879L23.4919 19.1877L23.4921 19.1875L23.4923 19.1873L23.4925 19.187L23.4928 19.1868L23.493 19.1866L23.4932 19.1864L23.4934 19.1862L23.4936 19.186L23.4938 19.1858L23.494 19.1856L23.4942 19.1854L23.4944 19.1851L23.4946 19.1849L23.4949 19.1847L23.4951 19.1845L23.4953 19.1843L23.4955 19.1841L23.4957 19.1839L23.4959 19.1837L23.4961 19.1835L23.4963 19.1833L23.4965 19.183L23.4967 19.1828L23.497 19.1826L23.4972 19.1824L23.4974 19.1822L23.4976 19.182L23.4978 19.1818L23.498 19.1816L23.4982 19.1814L23.4984 19.1811L23.4986 19.1809L23.4989 19.1807L23.4991 19.1805L23.4993 19.1803L23.4995 19.1801L23.4997 19.1799L23.4999 19.1797L23.5001 19.1795L23.5003 19.1793L23.5005 19.179L23.5007 19.1788L23.501 19.1786L23.5012 19.1784L23.5014 19.1782L23.5016 19.178L23.5018 19.1778L23.502 19.1776L23.5022 19.1774L23.5024 19.1771L23.5026 19.1769L23.5029 19.1767L23.5031 19.1765L23.5033 19.1763L23.5035 19.1761L23.5037 19.1759L23.5039 19.1757L23.5041 19.1755L23.5043 19.1753L23.5045 19.175L23.5047 19.1748L23.505 19.1746L23.5052 19.1744L23.5054 19.1742L23.5056 19.174L23.5058 19.1738L23.506 19.1736L23.5062 19.1734L23.5064 19.1731L23.5066 19.1729L23.5069 19.1727L23.5071 19.1725L23.5073 19.1723L23.5075 19.1721L23.5077 19.1719L23.5079 19.1717L23.5081 19.1715L23.5083 19.1713L23.5085 19.171L23.5087 19.1708L23.509 19.1706L23.5092 19.1704L23.5094 19.1702L23.5096 19.17L23.5098 19.1698L23.51 19.1696L23.5102 19.1694L23.5104 19.1691L23.5106 19.1689L23.5109 19.1687L23.5111 19.1685L23.5113 19.1683L23.5115 19.1681L23.5117 19.1679L23.5119 19.1677L23.5121 19.1675L23.5123 19.1673L23.5125 19.167L23.5127 19.1668L23.513 19.1666L23.5132 19.1664L23.5134 19.1662L23.5136 19.166L23.5138 19.1658L23.514 19.1656L23.5142 19.1654L23.5144 19.1651L23.5146 19.1649L23.5149 19.1647L23.5151 19.1645L23.5153 19.1643L23.5155 19.1641L23.5157 19.1639L23.5159 19.1637L23.5161 19.1635L23.5163 19.1633L23.5165 19.163L23.5167 19.1628L23.517 19.1626L23.5172 19.1624L23.5174 19.1622L23.5176 19.162L23.5178 19.1618L23.518 19.1616L23.5182 19.1614L23.5184 19.1611L23.5186 19.1609L23.5189 19.1607L23.5191 19.1605L23.5193 19.1603L23.5195 19.1601L23.5197 19.1599L23.5199 19.1597L23.5201 19.1595L23.5203 19.1593L23.5205 19.159L23.5207 19.1588L23.521 19.1586L23.5212 19.1584L23.5214 19.1582L23.5216 19.158L23.5218 19.1578L23.522 19.1576L23.5222 19.1574L23.5224 19.1571L23.5226 19.1569L23.5229 19.1567L23.5231 19.1565L23.5233 19.1563L23.5235 19.1561L23.5237 19.1559L23.5239 19.1557L23.5241 19.1555L23.5243 19.1553L23.5245 19.155L23.5247 19.1548L23.525 19.1546L23.5252 19.1544L23.5254 19.1542L23.5256 19.154L23.5258 19.1538L23.526 19.1536L23.5262 19.1534L23.5264 19.1532L23.5266 19.1529L23.5269 19.1527L23.5271 19.1525L23.5273 19.1523L23.5275 19.1521L23.5277 19.1519L23.5279 19.1517L23.5281 19.1515L23.5283 19.1513L23.5285 19.151L23.5287 19.1508L23.529 19.1506L23.5292 19.1504L23.5294 19.1502L23.5296 19.15L23.5298 19.1498L23.53 19.1496L23.5302 19.1494L23.5304 19.1492L23.5306 19.1489L23.5309 19.1487L23.5311 19.1485L23.5313 19.1483L23.5315 19.1481L23.5317 19.1479L23.5319 19.1477L23.5321 19.1475L23.5323 19.1473L23.5325 19.147L23.5327 19.1468L23.533 19.1466L23.5332 19.1464L23.5334 19.1462L23.5336 19.146L23.5338 19.1458L23.534 19.1456L23.5342 19.1454L23.5344 19.1452L23.5346 19.1449L23.5348 19.1447L23.5351 19.1445L23.5353 19.1443L23.5355 19.1441L23.5357 19.1439L23.5359 19.1437L23.5361 19.1435L23.5363 19.1433L23.5365 19.143L23.5367 19.1428L23.537 19.1426L23.5372 19.1424L23.5374 19.1422L23.5435 19.1361L23.5494 19.1298C25.1479 17.417 26.0549 15.1023 26.0549 12.6096C26.0549 7.33991 21.8433 3.1284 16.5737 3.1284Z" fill="#28CAB8" stroke="black"/>
</g>
<defs>
<filter id="filter0_d_1_402" x="0" y="0" width="37" height="37" filterUnits="userSpaceOnUse" color-interpolation-filters="sRGB">
<feFlood flood-opacity="0" result="BackgroundImageFix"/>
<feColorMatrix in="SourceAlpha" type="matrix" values="0 0 0 0 0 0 0 0 0 0 0 0 0 0 0 0 0 0 127 0" result="hardAlpha"/>
<feOffset dy="4"/>
<feGaussianBlur stdDeviation="2"/>
<feComposite in2="hardAlpha" operator="out"/>
<feColorMatrix type="matrix" values="0 0 0 0 0 0 0 0 0 0 0 0 0 0 0 0 0 0 0.25 0"/>
<feBlend mode="normal" in2="BackgroundImageFix" result="effect1_dropShadow_1_402"/>
<feBlend mode="normal" in="SourceGraphic" in2="effect1_dropShadow_1_402" result="shape"/>
</filter>
</defs>
</svg>
